<?xml version="1.0" encoding="UTF-8" standalone="no"?>
<!DOCTYPE svg PUBLIC "-//W3C//DTD SVG 1.1//EN"
 "http://www.w3.org/Graphics/SVG/1.1/DTD/svg11.dtd">
<!-- Generated by graphviz version 2.38.0 (20140413.2041)
 -->
<!-- Title: G Pages: 1 -->
<svg width="164pt" height="188pt"
 viewBox="0.00 0.00 164.25 188.00" xmlns="http://www.w3.org/2000/svg" xmlns:xlink="http://www.w3.org/1999/xlink">
<g id="graph0" class="graph" transform="scale(1 1) rotate(0) translate(4 184)">
<title>G</title>
<polygon fill="white" stroke="none" points="-4,4 -4,-184 160.246,-184 160.246,4 -4,4"/>
<!-- 0 -->
<g id="node1" class="node"><title>0</title>
<ellipse fill="none" stroke="black" cx="85.2463" cy="-162" rx="28.6953" ry="18"/>
<text text-anchor="middle" x="85.2463" y="-158.3" font-family="Times New Roman,serif" font-size="14.00">1,1,2</text>
</g>
<!-- 1 -->
<g id="node2" class="node"><title>1</title>
<ellipse fill="none" stroke="black" cx="42.2463" cy="-90" rx="42.4939" ry="18"/>
<text text-anchor="middle" x="42.2463" y="-86.3" font-family="Times New Roman,serif" font-size="14.00">10,11,12</text>
</g>
<!-- 0&#45;&gt;1 -->
<g id="edge1" class="edge"><title>0&#45;&gt;1</title>
<path fill="none" stroke="black" d="M75.2731,-144.765C70.084,-136.317 63.623,-125.799 57.7952,-116.312"/>
<polygon fill="black" stroke="black" points="60.6804,-114.322 52.4639,-107.633 54.7159,-117.986 60.6804,-114.322"/>
</g>
<!-- 2 -->
<g id="node3" class="node"><title>2</title>
<ellipse fill="none" stroke="black" cx="129.246" cy="-90" rx="27" ry="18"/>
<text text-anchor="middle" x="129.246" y="-86.3" font-family="Times New Roman,serif" font-size="14.00">2</text>
</g>
<!-- 0&#45;&gt;2 -->
<g id="edge2" class="edge"><title>0&#45;&gt;2</title>
<path fill="none" stroke="black" d="M95.2305,-145.116C100.744,-136.345 107.709,-125.264 113.899,-115.416"/>
<polygon fill="black" stroke="black" points="116.943,-117.15 119.301,-106.821 111.016,-113.425 116.943,-117.15"/>
</g>
<!-- 3 -->
<g id="node4" class="node"><title>3</title>
<ellipse fill="none" stroke="black" cx="129.246" cy="-18" rx="27" ry="18"/>
<text text-anchor="middle" x="129.246" y="-14.3" font-family="Times New Roman,serif" font-size="14.00">99</text>
</g>
<!-- 2&#45;&gt;3 -->
<g id="edge3" class="edge"><title>2&#45;&gt;3</title>
<path fill="none" stroke="black" d="M129.246,-71.6966C129.246,-63.9827 129.246,-54.7125 129.246,-46.1124"/>
<polygon fill="black" stroke="black" points="132.746,-46.1043 129.246,-36.1043 125.746,-46.1044 132.746,-46.1043"/>
</g>
</g>
</svg>
